<svg width="12" height="6" viewBox="0 0 12 6" fill="none" xmlns="http://www.w3.org/2000/svg">
<path d="M11.8625 2.66543C11.8624 2.66529 11.8623 2.66513 11.8621 2.66499L9.41278 0.214381C9.22928 0.0307975 8.9325 0.0314806 8.74985 0.215983C8.56722 0.400462 8.56793 0.698847 8.75142 0.882454L10.3959 2.52775H0.46875C0.209859 2.52775 0 2.73874 0 2.99902C0 3.25931 0.209859 3.47029 0.46875 3.47029H10.3959L8.75144 5.11559C8.56795 5.2992 8.56725 5.59758 8.74987 5.78206C8.93252 5.96659 9.22933 5.96723 9.4128 5.78367L11.8621 3.33306C11.8623 3.33292 11.8624 3.33275 11.8625 3.33261C12.0461 3.14839 12.0455 2.84904 11.8625 2.66543Z" fill="#0057B1"/>
</svg>
