<svg width="176" height="33" viewBox="0 0 176 33" fill="none" xmlns="http://www.w3.org/2000/svg">
<path fill-rule="evenodd" clip-rule="evenodd" d="M29.514 14.7849C29.514 22.8773 23.0737 29.4366 15.1299 29.4366C7.18548 29.4366 0.746582 22.8773 0.746582 14.7849C0.746582 6.69117 7.18548 0.131836 15.1299 0.131836C23.0737 0.131836 29.514 6.69117 29.514 14.7849Z" fill="#FF9F00"/>
<path fill-rule="evenodd" clip-rule="evenodd" d="M44.945 22.3257C41.9381 22.3257 39.7772 21.3292 38.3205 19.87L40.1289 17.3661C41.2331 18.5016 42.9488 19.4527 45.1097 19.4527C46.942 19.4527 47.8347 18.618 47.8347 17.7372C47.8347 15.0027 38.8139 16.8799 38.8139 11.0622C38.8139 8.49016 41.0684 6.35742 44.7573 6.35742C47.2477 6.35742 49.3151 7.09909 50.8653 8.51287L49.0094 10.9231C47.7411 9.76484 46.0499 9.23183 44.4516 9.23183C43.0186 9.23183 42.2201 9.8571 42.2201 10.784C42.2201 13.2411 51.2178 11.5952 51.2178 17.3661C51.2178 20.1936 49.1741 22.3257 44.945 22.3257ZM60.4507 22.0481H57.0906V9.48591H52.5098V6.59021H65.0079V9.48733H60.45V22.0481H60.4507ZM81.0831 22.0481H77.277L76.3138 19.4292H69.595L68.6081 22.0481H64.8026L70.8632 6.5895H75.0449L81.0824 22.0474L81.0831 22.0481ZM75.3973 16.5321L72.9544 9.88052L70.5115 16.5321H75.3973ZM95.2256 22.0481H91.3958L88.3184 16.5548H85.8755V22.0481H82.5391V6.5895H89.8693C93.1345 6.5895 95.1314 8.69882 95.1314 11.5718C95.1314 14.3071 93.3934 15.767 91.7015 16.1609L95.2256 22.0481ZM89.3758 13.6584C90.7146 13.6584 91.7253 12.8706 91.7253 11.5718C91.7253 10.2744 90.7146 9.48662 89.3758 9.48662H85.8755V13.6584H89.3758ZM104.623 22.0474H101.263V9.48733H96.6816V6.5895H109.18V9.48662H104.622V22.0481L104.623 22.0474ZM116.886 22.3257C113.879 22.3257 111.717 21.3292 110.261 19.87L112.069 17.3661C113.174 18.5016 114.889 19.4527 117.05 19.4527C118.882 19.4527 119.775 18.618 119.775 17.7372C119.775 15.0027 110.754 16.8799 110.754 11.0622C110.754 8.49016 113.01 6.35742 116.698 6.35742C119.188 6.35742 121.256 7.09909 122.806 8.51287L120.95 10.9231C119.681 9.76484 117.99 9.23183 116.392 9.23183C114.959 9.23183 114.161 9.8571 114.161 10.784C114.161 13.2411 123.158 11.5952 123.158 17.3661C123.158 20.1936 121.115 22.3257 116.885 22.3257H116.886ZM142.399 22.0481H139.039V11.2248L134.623 22.0481H133.166L128.749 11.2248V22.0481H125.413V6.5895H130.089L133.894 15.9296L137.7 6.5895H142.399V22.0474V22.0481ZM148.413 22.0481H145.429V6.5895H148.413V22.0474V22.0481ZM161.404 22.0481H151.443V6.5895H154.78V19.151H161.404V22.0481H161.404ZM174.819 22.0481H163.73V6.5895H174.819V9.48662H167.066V12.7542H174.654V15.6513H167.066V19.1503H174.819V22.0481Z" fill="black"/>
<path opacity="0.5" fill-rule="evenodd" clip-rule="evenodd" d="M39.7058 30.863C39.0825 30.863 38.7049 30.5933 38.4795 30.2832L38.9101 29.8715C39.0895 30.1214 39.361 30.2832 39.673 30.2832C40.17 30.2832 40.5148 29.973 40.6139 29.4471H39.1691V28.8339H40.6069C40.5078 28.3279 40.1567 28.0248 39.673 28.0248C39.361 28.0248 39.0895 28.1795 38.9101 28.4365L38.4795 28.0248C38.7049 27.7147 39.0825 27.445 39.7058 27.445C40.6802 27.445 41.3636 28.1661 41.3636 29.1505C41.3636 30.1412 40.6802 30.863 39.7058 30.863ZM45.9053 30.7821H45.0301L44.0487 29.4407L43.6048 29.9056V30.7821H42.9089V27.5259H43.6048V29.0965L45.0168 27.5259H45.8788L44.5457 29.0021L45.9053 30.7821ZM48.6973 30.863C47.7222 30.863 47.0396 30.1412 47.0396 29.1505C47.0396 28.1661 47.7222 27.445 48.6973 27.445C49.3206 27.445 49.6982 27.7147 49.9236 28.0248L49.4664 28.4563C49.3858 28.3341 49.2759 28.2346 49.1471 28.1673C49.0183 28.1001 48.8748 28.0671 48.7301 28.0717C48.1466 28.0717 47.762 28.5167 47.762 29.1505C47.762 29.7842 48.1466 30.2363 48.7301 30.2363C49.0421 30.2363 49.2871 30.1015 49.4664 29.8517L49.9236 30.2832C49.6982 30.5933 49.3206 30.863 48.6973 30.863ZM54.24 30.7821H53.5441V28.1462H52.072V30.7821H51.3761V27.5259H54.24V30.7821ZM57.4625 30.863C56.5014 30.863 55.7853 30.1817 55.7853 29.1505C55.7853 28.2065 56.4616 27.445 57.4095 27.445C58.3713 27.445 58.9876 28.193 58.9876 29.2179V29.3868H56.5147C56.5677 29.8786 56.9321 30.2832 57.5358 30.2832C57.8471 30.2832 58.2185 30.1554 58.4439 29.9255L58.7622 30.3911C58.4439 30.7012 57.9735 30.863 57.4625 30.863ZM58.3113 28.8879C58.298 28.5032 58.0391 28.0248 57.4095 28.0248C56.8127 28.0248 56.5412 28.4897 56.5084 28.8879H58.3113ZM62.2437 30.863C61.8389 30.863 61.4746 30.6806 61.2156 30.3307V32.0227H60.5197V27.5259H61.2156V27.9709C61.3345 27.8075 61.4895 27.6749 61.6681 27.5835C61.8467 27.4922 62.0438 27.4447 62.2437 27.445C63.0722 27.445 63.662 28.0788 63.662 29.1505C63.662 30.2221 63.0722 30.863 62.2437 30.863ZM62.0378 30.2356C62.5885 30.2356 62.9396 29.7842 62.9396 29.1505C62.9396 28.5238 62.5885 28.0717 62.0378 28.0717C61.7133 28.0717 61.3678 28.2675 61.2156 28.5103V29.7977C61.3685 30.0334 61.7133 30.2356 62.0378 30.2356ZM66.4735 30.7821H65.7776V28.1462H64.8633V27.5259H67.3955V28.1462H66.4742V30.7821H66.4735ZM69.5041 30.7821H68.8083V27.5259H69.5041V28.8069H70.9762V27.5259H71.6721V30.7821H70.9762V29.4265H69.5041V30.7821ZM73.4163 27.5259H74.1122V28.7055H75.2465C75.9556 28.7055 76.3074 29.1845 76.3074 29.7438C76.3074 30.3031 75.9361 30.7821 75.2465 30.7821H73.4163V27.5259ZM75.1599 29.3258H74.1129V30.1618H75.1599C75.4391 30.1618 75.5975 29.9865 75.5975 29.7438C75.5975 29.5011 75.4384 29.3258 75.1599 29.3258ZM77.487 30.7821H76.7911V27.5259H77.487V30.7821ZM79.9006 30.7821H79.2312V27.5259H79.9271V29.7168L81.3999 27.5259H82.0958V30.7821H81.3992V28.5301L79.9006 30.7821ZM81.8235 26.589C81.5583 26.9524 81.1409 27.1817 80.6635 27.1817C80.4371 27.1814 80.2139 27.1278 80.0114 27.0249C79.8089 26.9221 79.6327 26.7729 79.4965 26.589L79.8148 26.3193C80.0067 26.589 80.2985 26.7643 80.6635 26.7643C81.0146 26.7643 81.3126 26.5954 81.5053 26.3193L81.8235 26.589ZM86.8497 30.7821H85.9752L87.3341 29.0021L86.001 27.5259H86.863L88.0105 28.7998V27.5259H88.7064V28.7998L89.8531 27.5259H90.7152L89.3827 29.0021L90.7417 30.7821H89.8664L88.8857 29.4407L88.7064 29.6288V30.7821H88.0105V29.6281L87.8311 29.44L86.8497 30.7814V30.7821ZM91.9359 32.0561L92.042 31.4223C92.1146 31.4564 92.2277 31.4762 92.3073 31.4762C92.5257 31.4762 92.6716 31.4088 92.7644 31.1931L92.9236 30.8226L91.6114 27.5259H92.3533L93.2886 29.9659L94.2232 27.5259H94.9722L93.4275 31.3684C93.2084 31.922 92.8238 32.0965 92.3268 32.1036C92.1953 32.1011 92.0643 32.0852 91.9359 32.0561ZM97.9756 30.863C97.5708 30.863 97.2064 30.6806 96.9474 30.3307V32.0227H96.2516V27.5259H96.9474V27.9709C97.0664 27.8075 97.2214 27.6749 97.4 27.5835C97.5785 27.4922 97.7757 27.4447 97.9756 27.445C98.8041 27.445 99.3939 28.0788 99.3939 29.1505C99.3939 30.2221 98.8041 30.863 97.9756 30.863ZM97.7697 30.2356C98.3204 30.2356 98.6715 29.7842 98.6715 29.1505C98.6715 28.5238 98.3204 28.0717 97.7697 28.0717C97.4451 28.0717 97.0996 28.2675 96.9474 28.5103V29.7977C97.1003 30.0334 97.4451 30.2356 97.7697 30.2356ZM101.623 30.7821H100.926V27.5259H101.623V28.8069H103.094V27.5259H103.79V30.7821H103.094V29.4265H101.623V30.7821ZM108.186 30.7821H107.49V30.4315C107.252 30.7083 106.88 30.863 106.456 30.863C105.933 30.863 105.342 30.5053 105.342 29.7842C105.342 29.0362 105.933 28.726 106.456 28.726C106.887 28.726 107.259 28.868 107.49 29.1441V28.6586C107.49 28.281 107.185 28.0518 106.741 28.0518C106.383 28.0518 106.071 28.1866 105.793 28.4634L105.508 27.9709C105.88 27.6132 106.343 27.445 106.854 27.445C107.563 27.445 108.187 27.748 108.187 28.6245V30.7821H108.186ZM106.728 30.3776C107.033 30.3776 107.331 30.2626 107.49 30.0405V29.5479C107.331 29.3258 107.033 29.2115 106.728 29.2115C106.337 29.2115 106.045 29.4407 106.045 29.7977C106.045 30.1483 106.337 30.3776 106.728 30.3776ZM109.599 30.863V30.2832C109.871 30.2832 110.023 29.9659 110.13 29.11L110.322 27.5259H112.794V30.7821H112.099V28.1462H110.939L110.825 29.1909C110.7 30.3705 110.302 30.863 109.599 30.863ZM118.53 30.863C117.516 30.863 116.886 30.0873 116.886 29.1505C116.886 28.2207 117.516 27.445 118.53 27.445C119.558 27.445 120.181 28.22 120.181 29.1505C120.181 30.0873 119.558 30.863 118.53 30.863ZM118.53 30.2356C119.127 30.2356 119.459 29.7303 119.459 29.1505C119.459 28.5777 119.127 28.0717 118.53 28.0717C117.941 28.0717 117.609 28.5777 117.609 29.1505C117.609 29.7303 117.941 30.2363 118.53 30.2363V30.2356ZM125.732 30.863C124.757 30.863 124.074 30.1412 124.074 29.1505C124.074 28.1661 124.757 27.445 125.732 27.445C126.355 27.445 126.732 27.7147 126.958 28.0248L126.501 28.4563C126.42 28.3342 126.31 28.2348 126.182 28.1675C126.053 28.1002 125.91 28.0673 125.765 28.0717C125.182 28.0717 124.797 28.5167 124.797 29.1505C124.797 29.7842 125.181 30.2363 125.765 30.2363C126.076 30.2363 126.321 30.1015 126.501 29.8517L126.958 30.2832C126.732 30.5933 126.355 30.863 125.732 30.863ZM129.691 30.7821H128.994V28.1462H128.08V27.5259H130.612V28.1462H129.691V30.7821ZM133.469 30.863C132.455 30.863 131.826 30.0873 131.826 29.1505C131.826 28.2207 132.455 27.445 133.469 27.445C134.498 27.445 135.121 28.22 135.121 29.1505C135.121 30.0873 134.498 30.863 133.469 30.863ZM133.469 30.2356C134.066 30.2356 134.398 29.7303 134.398 29.1505C134.398 28.5777 134.066 28.0717 133.469 28.0717C132.88 28.0717 132.548 28.5777 132.548 29.1505C132.548 29.7303 132.88 30.2363 133.469 30.2363V30.2356ZM140.252 30.7821H139.557V28.5167L138.602 30.7821H138.323L137.362 28.5167V30.7821H136.666V27.5259H137.574L138.463 29.6288L139.338 27.5259H140.252V30.7821ZM144.649 30.7821H143.952V30.4315C143.714 30.7083 143.342 30.863 142.919 30.863C142.395 30.863 141.805 30.5053 141.805 29.7842C141.805 29.0362 142.395 28.726 142.919 28.726C143.349 28.726 143.721 28.868 143.952 29.1441V28.6586C143.952 28.281 143.647 28.0518 143.204 28.0518C142.845 28.0518 142.533 28.1866 142.256 28.4634L141.97 27.9709C142.341 27.6132 142.806 27.445 143.316 27.445C144.026 27.445 144.649 27.748 144.649 28.6245V30.7821ZM143.19 30.3776C143.495 30.3776 143.793 30.2626 143.952 30.0405V29.5479C143.793 29.3258 143.495 29.2115 143.19 29.2115C142.799 29.2115 142.508 29.4407 142.508 29.7977C142.508 30.1483 142.799 30.3776 143.19 30.3776ZM147.673 30.7821H146.976V28.1462H146.062V27.5259H148.594V28.1462H147.673V30.7821ZM151.452 30.863C150.437 30.863 149.808 30.0873 149.808 29.1505C149.808 28.2207 150.437 27.445 151.452 27.445C152.48 27.445 153.103 28.22 153.103 29.1505C153.103 30.0873 152.48 30.863 151.452 30.863ZM151.452 30.2356C152.049 30.2356 152.381 29.7303 152.381 29.1505C152.381 28.5777 152.049 28.0717 151.452 28.0717C150.862 28.0717 150.531 28.5777 150.531 29.1505C150.531 29.7303 150.862 30.2363 151.452 30.2363V30.2356ZM154.317 30.863V30.2832C154.589 30.2832 154.741 29.9659 154.847 29.11L155.039 27.5259H157.512V30.7821H156.816V28.1462H155.656L155.543 29.1909C155.418 30.3705 155.02 30.863 154.317 30.863ZM160.702 30.863C159.688 30.863 159.057 30.0873 159.057 29.1505C159.057 28.2207 159.688 27.445 160.702 27.445C161.729 27.445 162.353 28.22 162.353 29.1505C162.353 30.0873 161.729 30.863 160.702 30.863ZM160.702 30.2356C161.299 30.2356 161.63 29.7303 161.63 29.1505C161.63 28.5777 161.299 28.0717 160.702 28.0717C160.111 28.0717 159.781 28.5777 159.781 29.1505C159.781 29.7303 160.111 30.2363 160.702 30.2363V30.2356ZM166.324 27.5259V28.1462H164.594V30.7821H163.898V27.5259H166.324ZM168.407 30.7821H167.737V27.5259H168.433V29.7168L169.905 27.5259H170.601V30.7821H169.905V28.5301L168.407 30.7821ZM173.015 30.7821H172.345V27.5259H173.042V29.7168L174.514 27.5259H175.21V30.7821H174.514V28.5301L173.015 30.7821Z" fill="black"/>
<path fill-rule="evenodd" clip-rule="evenodd" d="M146.955 4.34929C145.992 4.34929 145.171 3.55936 145.171 2.58348C145.171 1.60831 145.992 0.841797 146.955 0.841797C147.942 0.841797 148.74 1.60831 148.74 2.58348C148.74 3.55936 147.942 4.34929 146.955 4.34929Z" fill="#FF9F00"/>
<path fill-rule="evenodd" clip-rule="evenodd" d="M7.91831 10.7123C7.85131 10.7123 7.785 10.7031 7.71799 10.6861C7.51729 10.6278 7.34716 10.4916 7.24428 10.3069C7.14139 10.1223 7.11399 9.90387 7.16798 9.69885C7.49743 8.41423 8.62188 7.51926 9.90128 7.51926C11.1807 7.51926 12.3058 8.41494 12.636 9.69814C12.6898 9.90325 12.6623 10.1216 12.5595 10.3064C12.4566 10.4911 12.2866 10.6275 12.086 10.6861C11.9867 10.7124 11.8833 10.7185 11.7817 10.704C11.6801 10.6894 11.5823 10.6546 11.494 10.6015C11.4057 10.5484 11.3286 10.4781 11.2672 10.3945C11.2057 10.311 11.1612 10.2159 11.136 10.1147C11.066 9.83526 10.9068 9.58725 10.6834 9.40953C10.46 9.2318 10.1849 9.13437 9.90128 9.13248C9.61782 9.13477 9.34306 9.23236 9.11984 9.41004C8.89663 9.58771 8.73749 9.83549 8.66725 10.1147C8.57511 10.4753 8.26172 10.7123 7.91831 10.7123ZM15.132 23.7778C13.6818 23.7813 12.2545 23.4103 10.984 22.6994C9.71347 21.9886 8.6413 20.9613 7.86806 19.7139C7.79749 19.609 7.74841 19.4908 7.72374 19.3663C7.69907 19.2418 7.69931 19.1135 7.72446 18.989C7.74961 18.8646 7.79914 18.7466 7.8701 18.6421C7.94107 18.5375 8.03201 18.4486 8.13751 18.3805C8.24301 18.3125 8.3609 18.2668 8.48416 18.2461C8.60742 18.2253 8.73351 18.2301 8.85493 18.26C8.97634 18.2899 9.09059 18.3444 9.19085 18.4202C9.29112 18.4959 9.37535 18.5915 9.43852 18.7011C10.0447 19.6785 10.885 20.4835 11.8807 21.0405C12.8764 21.5975 13.9948 21.8883 15.1313 21.8856C16.2679 21.8885 17.3867 21.5978 18.3827 21.0408C19.3786 20.4838 20.2191 19.6787 20.8254 18.7011C20.9575 18.4893 21.1669 18.3396 21.4076 18.2848C21.6482 18.23 21.9004 18.2747 22.1087 18.409C22.3169 18.5433 22.4642 18.7562 22.518 19.0009C22.5719 19.2457 22.528 19.5021 22.3959 19.7139C21.6223 20.9611 20.5499 21.9883 19.2793 22.6991C18.0087 23.4099 16.5815 23.781 15.1313 23.7778H15.132ZM22.25 9.69743C22.25 10.899 21.4697 11.8742 20.5064 11.8742C19.5439 11.8742 18.7636 10.899 18.7636 9.69743C18.7636 8.49443 19.5439 7.51855 20.5064 7.51855C21.4697 7.51855 22.25 8.49443 22.25 9.69743Z" fill="white"/>
</svg>
