<svg width="124" height="30" viewBox="0 0 124 30" fill="none" xmlns="http://www.w3.org/2000/svg">
<path d="M1.37102 1.22151H26.9246C27.5197 1.22151 28.0022 1.70174 28.0022 2.29413V7.29617C28.0022 7.96246 27.7117 8.59331 27.2061 9.02987L12.9163 20.9294H26.9246C27.5197 20.9294 28.0022 21.4008 28.0022 21.9932V27.7357C28.0022 28.3281 27.5197 28.8083 26.9246 28.8083H1.37102C0.775897 28.8083 0.293457 28.3281 0.293457 27.7357V22.7419C0.293457 22.0756 0.583913 21.4447 1.08957 21.0082L15.3793 9.10868H1.37102C0.775897 9.10868 0.293457 8.61751 0.293457 8.02512V2.29413C0.293457 1.70174 0.775897 1.22151 1.37102 1.22151ZM45.8149 0.243164C48.7696 0.243164 51.4038 0.904552 53.6029 2.11319C55.802 3.32184 57.566 5.07773 58.7802 7.26675C59.9944 9.45576 60.6588 12.0779 60.6588 15.019C60.6588 17.9601 59.9944 20.5823 58.7802 22.7713C57.566 24.9603 55.802 26.7162 53.6029 27.9248C51.4038 29.1335 48.7696 29.7949 45.8149 29.7949C42.8602 29.7949 40.226 29.1335 38.0269 27.9248C35.8278 26.7162 34.0638 24.9603 32.8496 22.7713C31.6354 20.5823 30.9709 17.9601 30.9709 15.019C30.9709 12.0779 31.6354 9.45576 32.8496 7.26675C34.0638 5.07773 35.8278 3.32184 38.0269 2.11319C40.226 0.904552 42.8602 0.243164 45.8149 0.243164ZM45.8149 8.12362C44.4015 8.12362 43.1607 8.42081 42.1345 8.97339C41.1082 9.52596 40.2965 10.3339 39.7414 11.3555C39.1863 12.377 38.8877 13.6121 38.8877 15.019C38.8877 16.4259 39.1863 17.661 39.7414 18.6826C40.2965 19.7041 41.1082 20.5121 42.1345 21.0647C43.1607 21.6172 44.4015 21.9144 45.8149 21.9144C47.2283 21.9144 48.4691 21.6172 49.4953 21.0647C50.5216 20.5121 51.3333 19.7041 51.8884 18.6826C52.4435 17.661 52.7421 16.4259 52.7421 15.019C52.7421 13.6121 52.4435 12.377 51.8884 11.3555C51.3333 10.3339 50.5216 9.52596 49.4953 8.97339C48.4691 8.42081 47.2283 8.12362 45.8149 8.12362ZM77.482 0.243164C80.4367 0.243164 83.0709 0.904552 85.27 2.11319C87.4691 3.32184 89.2331 5.07773 90.4473 7.26675C91.6615 9.45576 92.3259 12.0779 92.3259 15.019C92.3259 17.9601 91.6615 20.5823 90.4473 22.7713C89.2331 24.9603 87.4691 26.7162 85.27 27.9248C83.0709 29.1335 80.4367 29.7949 77.482 29.7949C74.5273 29.7949 71.8931 29.1335 69.694 27.9248C67.4949 26.7162 65.7309 24.9603 64.5167 22.7713C63.3025 20.5823 62.638 17.9601 62.638 15.019C62.638 12.0779 63.3025 9.45576 64.5167 7.26675C65.7309 5.07773 67.4949 3.32184 69.694 2.11319C71.8931 0.904552 74.5273 0.243164 77.482 0.243164ZM77.482 8.12362C76.0686 8.12362 74.8278 8.42081 73.8015 8.97339C72.7753 9.52596 71.9636 10.3339 71.4085 11.3555C70.8534 12.377 70.5548 13.6121 70.5548 15.019C70.5548 16.4259 70.8534 17.661 71.4085 18.6826C71.9636 19.7041 72.7753 20.5121 73.8015 21.0647C74.8278 21.6172 76.0686 21.9144 77.482 21.9144C78.8954 21.9144 80.1362 21.6172 81.1624 21.0647C82.1887 20.5121 83.0004 19.7041 83.5555 18.6826C84.1106 17.661 84.4092 16.4259 84.4092 15.019C84.4092 13.6121 84.1106 12.377 83.5555 11.3555C83.0004 10.3339 82.1887 9.52596 81.1624 8.97339C80.1362 8.42081 78.8954 8.12362 77.482 8.12362ZM123.007 2.29754V27.7353C123.007 28.3277 122.524 28.808 121.929 28.808H116.908C116.238 28.808 115.604 28.5189 115.166 28.0156L103.211 13.7931V27.7353C103.211 28.3277 102.718 28.808 102.123 28.808H96.369C95.7738 28.808 95.2914 28.3277 95.2914 27.7353V2.29754C95.2914 1.70512 95.7738 1.22487 96.369 1.22487H101.391C102.06 1.22487 102.694 1.51407 103.132 2.01751L115.087 16.2449V2.29754C115.087 1.70512 115.56 1.22487 116.155 1.22487H121.929C122.524 1.22487 123.007 1.70512 123.007 2.29754Z" fill="url(#paint0_linear_1141_1305)"/>
<defs>
<linearGradient id="paint0_linear_1141_1305" x1="95.2038" y1="15.019" x2="27.0588" y2="15.019" gradientUnits="userSpaceOnUse">
<stop stop-color="#6339F5"/>
<stop offset="1" stop-color="#3D3F55"/>
</linearGradient>
</defs>
</svg>
