<svg width="26" height="26" viewBox="0 0 26 26" fill="none" xmlns="http://www.w3.org/2000/svg">
<path d="M13.0033 0H12.9968C5.82888 0 0 5.8305 0 13C0 15.8438 0.9165 18.4795 2.47488 20.6196L0.85475 25.4491L5.85163 23.8518C7.90725 25.2135 10.3594 26 13.0033 26C20.1711 26 26 20.1679 26 13C26 5.83213 20.1711 0 13.0033 0Z" fill="#4CAF50"/>
<path d="M20.5675 18.358C20.2539 19.2437 19.0092 19.9782 18.0163 20.1927C17.337 20.3373 16.4498 20.4527 13.463 19.2144C9.64265 17.6317 7.1824 13.7495 6.99065 13.4977C6.80702 13.2458 5.4469 11.442 5.4469 9.57654C5.4469 7.71104 6.39427 6.80266 6.77615 6.41266C7.08977 6.09254 7.60815 5.94629 8.1054 5.94629C8.26627 5.94629 8.4109 5.95441 8.5409 5.96091C8.92278 5.97716 9.11453 5.99991 9.3664 6.60279C9.68003 7.35841 10.4438 9.22391 10.5348 9.41566C10.6274 9.60741 10.72 9.86742 10.59 10.1193C10.4682 10.3793 10.3609 10.4947 10.1692 10.7157C9.9774 10.9367 9.7954 11.1057 9.60365 11.3429C9.42815 11.5493 9.2299 11.7703 9.4509 12.1522C9.6719 12.5259 10.4357 13.7723 11.5602 14.7733C13.0113 16.0652 14.1878 16.4779 14.6087 16.6534C14.9223 16.7834 15.296 16.7525 15.5252 16.5088C15.816 16.1952 16.1752 15.6752 16.5408 15.1633C16.8008 14.796 17.129 14.7505 17.4735 14.8805C17.8245 15.0024 19.6819 15.9205 20.0638 16.1107C20.4457 16.3024 20.6975 16.3934 20.7902 16.5543C20.8812 16.7152 20.8812 17.4708 20.5675 18.358Z" fill="#FAFAFA"/>
</svg>
