<svg width="194" height="70" viewBox="0 0 194 70" fill="none" xmlns="http://www.w3.org/2000/svg">
<path d="M95.9634 61.9305C96.7038 61.9305 97.2962 62.2248 97.7405 62.9603L98.9252 61.7834C98.3328 61.0479 97.4443 60.3124 95.9634 60.3124C93.5939 60.3124 91.9649 62.2248 91.9649 64.7255C91.9649 67.2263 93.5939 69.1386 95.9634 69.1386C97.4443 69.1386 98.4809 68.4031 98.9252 67.6676L97.7405 66.4908C97.2962 67.0792 96.7038 67.5205 95.9634 67.5205C94.4824 67.5205 93.5939 66.3437 93.5939 64.7255C93.5939 63.1074 94.4824 61.9305 95.9634 61.9305ZM99.8137 62.0777H102.035V68.8444H103.664V62.0777H105.885V60.4595H99.6656V62.0777H99.8137ZM110.624 60.3124C108.107 60.3124 106.626 62.3719 106.626 64.7255C106.626 67.0792 108.107 69.1386 110.624 69.1386C113.142 69.1386 114.623 67.0792 114.623 64.7255C114.771 62.3719 113.142 60.3124 110.624 60.3124ZM110.624 67.5205C109.144 67.5205 108.403 66.1965 108.403 64.7255C108.403 63.2545 109.144 61.9305 110.624 61.9305C112.105 61.9305 112.846 63.2545 112.846 64.7255C112.994 66.1965 112.105 67.5205 110.624 67.5205ZM120.695 65.9023L118.473 60.4595H116.252V68.8444H117.881V62.9603L120.25 68.8444H120.991L123.36 62.9603V68.8444H124.989V60.4595H122.916L120.695 65.9023ZM130.321 60.3124C129.136 60.3124 127.951 60.7537 127.063 61.6363L127.803 62.9603C128.544 62.2248 129.284 61.9305 130.173 61.9305C131.209 61.9305 131.95 62.519 131.95 63.5487V64.7255C131.357 63.99 130.469 63.6958 129.432 63.6958C128.099 63.6958 126.766 64.4313 126.766 66.4908C126.766 68.4031 128.247 69.2857 129.432 69.2857C130.469 69.2857 131.357 68.8444 131.95 68.1089V68.9915H133.579V63.4016C133.579 61.0479 132.098 60.3124 130.321 60.3124ZM131.95 67.0792C131.505 67.6676 130.765 67.9618 130.024 67.9618C129.136 67.9618 128.395 67.3734 128.395 66.4908C128.395 65.6081 129.136 65.0197 130.024 65.0197C130.765 65.0197 131.505 65.3139 131.95 65.9023V67.0792ZM134.763 62.0777H136.985V68.8444H138.614V62.0777H140.835V60.4595H134.763V62.0777ZM145.722 60.3124C143.205 60.3124 141.724 62.3719 141.724 64.7255C141.724 67.0792 143.205 69.1386 145.722 69.1386C148.24 69.1386 149.721 67.0792 149.721 64.7255C149.721 62.3719 148.24 60.3124 145.722 60.3124ZM145.722 67.5205C144.241 67.5205 143.501 66.1965 143.501 64.7255C143.501 63.2545 144.241 61.9305 145.722 61.9305C147.203 61.9305 147.944 63.2545 147.944 64.7255C147.944 66.1965 147.203 67.5205 145.722 67.5205ZM151.646 64.5784C151.35 66.785 151.053 67.6676 150.313 67.6676V69.1386C152.09 69.1386 152.979 67.8147 153.275 64.8726L153.571 62.2248H156.385V68.9915H158.014V60.6066H151.942L151.646 64.5784ZM163.789 60.3124C161.272 60.3124 159.791 62.3719 159.791 64.7255C159.791 67.0792 161.272 69.1386 163.789 69.1386C166.307 69.1386 167.788 67.0792 167.788 64.7255C167.936 62.3719 166.307 60.3124 163.789 60.3124ZM163.789 67.5205C162.308 67.5205 161.568 66.1965 161.568 64.7255C161.568 63.2545 162.308 61.9305 163.789 61.9305C165.27 61.9305 166.011 63.2545 166.011 64.7255C166.159 66.1965 165.27 67.5205 163.789 67.5205ZM169.417 68.9915H171.046V62.2248H175.34V60.6066H169.417V68.9915ZM178.302 66.1965V60.6066H176.673V68.9915H178.302L182.005 63.2545V68.9915H183.634V60.6066H182.005L178.302 66.1965ZM185.411 63.2545C185.411 64.7255 186.151 65.6081 187.188 65.9023L185.263 68.9915H187.188L188.965 65.9023H190.742V68.9915H192.371V60.6066H187.928C186.299 60.4595 185.411 61.7834 185.411 63.2545ZM190.742 62.0777V64.2842H188.224C187.484 64.2842 187.188 63.8429 187.188 63.2545C187.188 62.6661 187.632 62.2248 188.224 62.2248H190.742V62.0777ZM74.6382 13.8277H71.5282C69.7511 13.8277 68.2702 15.2988 68.2702 17.064V18.2408C65.7527 15.4459 62.1985 13.5335 57.9038 13.5335C49.3145 13.5335 42.058 20.7416 42.058 30.5975C42.058 40.1592 49.0183 47.6615 57.9038 47.6615C63.087 47.6615 67.2336 45.6021 69.8992 42.3658C69.8992 46.926 67.974 53.3985 58.6443 53.3985C53.9053 53.3985 50.4992 51.7804 47.9817 49.5739L43.9832 57.0761C48.7221 60.0182 54.4977 61.7834 61.1618 61.7834C70.4916 61.6363 78.0443 54.1341 78.0443 45.0137V17.064C78.0443 15.2988 76.5634 13.8277 74.6382 13.8277ZM60.1252 39.5708C54.942 39.5708 51.684 35.4519 51.684 29.862C51.684 24.7134 56.1267 21.4771 60.1252 21.4771C64.1237 21.4771 68.5664 24.7134 68.5664 30.4504C68.5664 36.4817 64.2718 39.5708 60.1252 39.5708ZM189.705 14.269H186.595C184.67 14.269 183.189 15.7401 183.189 17.5053V48.397H193.111V17.6524C192.963 15.7401 191.482 14.269 189.705 14.269ZM146.315 27.9497V48.5441H156.089V28.8323C156.089 25.3018 158.754 22.3597 162.012 22.3597C164.826 22.3597 167.344 24.8605 167.344 27.9497V48.5441H177.118V26.4786C177.118 19.4177 171.046 13.8277 164.085 13.8277C159.939 13.8277 156.089 15.8872 153.719 18.9763C151.498 15.8872 148.24 13.8277 144.389 13.8277C140.983 13.8277 137.725 15.2988 135.948 17.7995V17.5053C135.948 15.7401 134.467 14.269 132.69 14.269H129.58C127.803 14.269 126.322 15.7401 126.322 17.5053V48.5441H132.838C134.615 48.5441 136.096 47.0731 136.096 45.3079V28.9794C136.096 25.4489 138.466 22.3597 141.724 22.3597C144.093 22.3597 146.315 24.8605 146.315 27.9497ZM188.076 11.4741C191.334 11.4741 194 8.97331 194 5.73703C194 2.64786 191.334 0 188.076 0C184.818 0 182.153 2.50076 182.153 5.73703C182.153 8.82621 184.818 11.4741 188.076 11.4741ZM110.328 45.0137C110.328 46.7789 111.809 48.2499 113.586 48.2499H119.954V17.2111C119.954 15.4459 118.473 13.9748 116.696 13.9748H113.734C111.957 13.9748 110.476 15.4459 110.476 17.2111C107.515 14.7103 103.96 13.2393 100.11 13.2393C91.0763 13.2393 83.6718 21.1829 83.6718 31.0388C83.6718 40.8948 90.7802 48.8383 100.11 48.8383C103.96 48.9854 107.515 47.5144 110.328 45.0137ZM93.4458 30.7446C93.4458 25.3018 97.2962 21.0358 101.887 21.0358C106.478 21.0358 110.624 24.8605 110.624 30.7446C110.624 36.7759 106.478 40.4534 101.887 40.4534C97.2962 40.4534 93.4458 36.0403 93.4458 30.7446ZM32.8763 13.8277H29.9145C28.1374 13.8277 26.6565 15.2988 26.6565 17.064C23.8427 14.7103 20.2885 13.2393 16.4382 13.2393C7.40458 13.2393 0 21.1829 0 31.0388C0 40.8948 7.1084 48.8383 16.4382 48.8383C20.2885 48.8383 23.8427 47.3673 26.6565 45.0137C26.6565 46.7789 28.1374 48.2499 29.9145 48.2499H36.2824V17.2111C36.2824 15.2988 34.8015 13.8277 32.8763 13.8277ZM18.2153 40.4534C13.4763 40.4534 9.77405 36.0403 9.77405 30.7446C9.77405 25.3018 13.6244 21.0358 18.2153 21.0358C22.9542 21.0358 26.9527 24.8605 26.9527 30.7446C26.9527 36.7759 22.8061 40.4534 18.2153 40.4534Z" fill="white"/>
</svg>
