<svg width="25" height="19" viewBox="0 0 25 19" fill="none" xmlns="http://www.w3.org/2000/svg">
<path d="M12.5003 0.0678711C5.59671 0.0678711 0 5.7177 0 12.6872C0 16.4662 1.63087 18.9308 1.63087 18.9308L23.3644 18.9319C23.3644 18.9319 25 16.2383 25 12.6869C25 5.7177 19.4033 0.0678711 12.5003 0.0678711ZM22.4476 17.3945L2.59247 17.3859C2.59247 17.3859 1.53447 15.3823 1.53447 12.6474C1.53447 6.53889 6.4627 1.58661 12.5422 1.58661C18.6214 1.58661 23.5499 6.53862 23.5499 12.6474C23.5501 15.4132 22.4476 17.3945 22.4476 17.3945Z" fill="#E84282"/>
<path d="M16.0329 3.41891L15.8759 3.41865L12.5417 9.95226L9.08739 3.36285L4.35798 15.2668H3.13574V16.2229H9.83157V15.2668H8.50299L9.83157 11.5464L12.5417 16.2229L15.1456 11.5464L16.474 15.2668H15.1456V16.2229H21.788V15.2668H20.6373L16.0329 3.41891Z" fill="#E84282"/>
</svg>
