<svg width="25" height="25" viewBox="0 0 25 25" fill="none" xmlns="http://www.w3.org/2000/svg">
<path d="M12.5003 3.06787C5.59671 3.06787 0 8.7177 0 15.6872C0 19.4662 1.63087 21.9308 1.63087 21.9308L23.3644 21.9319C23.3644 21.9319 25 19.2383 25 15.6869C25 8.7177 19.4033 3.06787 12.5003 3.06787ZM22.4476 20.3945L2.59247 20.3859C2.59247 20.3859 1.53447 18.3823 1.53447 15.6474C1.53447 9.53889 6.4627 4.58661 12.5422 4.58661C18.6214 4.58661 23.5499 9.53862 23.5499 15.6474C23.5501 18.4132 22.4476 20.3945 22.4476 20.3945Z" fill="#BFD12F"/>
<path d="M16.0329 6.41891L15.8759 6.41865L12.5417 12.9523L9.08739 6.36285L4.35798 18.2668H3.13574V19.2229H9.83157V18.2668H8.50299L9.83157 14.5464L12.5417 19.2229L15.1456 14.5464L16.474 18.2668H15.1456V19.2229H21.788V18.2668H20.6373L16.0329 6.41891Z" fill="#BFD12F"/>
</svg>
